<svg width="30" height="33" viewBox="0 0 30 33" fill="none" xmlns="http://www.w3.org/2000/svg">
<path d="M5.76562 20.375C5.17188 20.375 4.60417 20.2448 4.0625 19.9844C3.52083 19.7135 3.05729 19.3542 2.67188 18.9062C1.45312 17.5104 1.23438 15.7604 2.01562 13.6562C2.77604 11.6458 4.17708 9.23958 6.21875 6.4375C7.27083 5 8.20833 3.83854 9.03125 2.95312C10.3958 1.48438 11.2396 0.75 11.5625 0.75C11.8958 0.75 12.2604 0.854167 12.6562 1.0625C13.0625 1.27083 13.4427 1.53125 13.7969 1.84375C14.6094 2.59375 14.9948 3.3125 14.9531 4C14.9219 4.55208 14.4062 5.48438 13.4062 6.79688L12.0312 8.5625C9.05208 12.2708 8.36979 14.125 9.98438 14.125C10.3385 14.125 10.7031 14.0365 11.0781 13.8594C15.1615 11.9948 18.9583 9.30208 22.4688 5.78125L24.7969 3.375C25.4635 2.67708 26.0156 2.11979 26.4531 1.70312C26.901 1.27604 27.2552 1.0625 27.5156 1.0625C27.776 1.0625 28.0521 1.15104 28.3438 1.32812C28.6354 1.50521 28.8906 1.71875 29.1094 1.96875C29.599 2.51042 29.8333 2.98958 29.8125 3.40625C29.625 5.98958 27.974 10.3646 24.8594 16.5312C24.2135 17.8229 23.5365 19.1042 22.8281 20.375C20.9635 23.6042 19.651 25.7917 18.8906 26.9375C18.1302 28.0938 17.474 29.0312 16.9219 29.75C15.7344 31.2812 14.9115 32.0469 14.4531 32.0469C13.9427 32.0469 13.0781 31.5417 11.8594 30.5312C10.5677 29.4792 9.92188 28.6354 9.92188 28C9.92188 27.8021 10.2969 27.224 11.0469 26.2656L15.1094 21.1562C17.1823 18.4896 18.5938 16.625 19.3438 15.5625C20.9792 13.2292 22.1823 11.2708 22.9531 9.6875C20.3177 11.875 18.5156 13.3385 17.5469 14.0781L14.8594 16.0625C10.7865 18.9375 7.75521 20.375 5.76562 20.375Z" fill="url(#paint0_linear_16_2)"/>
<defs>
<linearGradient id="paint0_linear_16_2" x1="10" y1="-8" x2="10" y2="27" gradientUnits="userSpaceOnUse">
<stop stop-color="#00FFB3"/>
<stop offset="1" stop-color="#0085FF"/>
</linearGradient>
</defs>
</svg>
